<?xml version="1.0" encoding="UTF-8"?>
<!DOCTYPE svg PUBLIC "-//W3C//DTD SVG 1.1//EN" "http://www.w3.org/Graphics/SVG/1.1/DTD/svg11.dtd">
<!-- Creator: CorelDRAW 2020 (64-Bit) -->
<svg xmlns="http://www.w3.org/2000/svg" xml:space="preserve" width="99.4596mm" height="66.9237mm" version="1.1" style="shape-rendering:geometricPrecision; text-rendering:geometricPrecision; image-rendering:optimizeQuality; fill-rule:evenodd; clip-rule:evenodd"
viewBox="0 0 183.67 123.59"
 xmlns:xlink="http://www.w3.org/1999/xlink"
 xmlns:xodm="http://www.corel.com/coreldraw/odm/2003">
 <defs>
  <style type="text/css">
   <![CDATA[
    .fil1 {fill:black}
    .fil0 {fill:black;fill-rule:nonzero}
   ]]>
  </style>
 </defs>
 <g id="Layer_x0020_1">
  <metadata id="CorelCorpID_0Corel-Layer"/>
  <path class="fil0" d="M138.72 59.15c-3.84,0 -7.15,-1.39 -9.94,-4.18 -2.79,-2.79 -4.18,-6.19 -4.18,-10.2 0,-4.36 1.44,-7.8 4.32,-10.33 2.88,-2.53 6.23,-3.79 10.07,-3.79 3.66,0 6.93,1.26 9.81,3.79 2.88,2.53 4.32,5.97 4.32,10.33 0,4.01 -1.39,7.41 -4.18,10.2 -2.79,2.79 -6.19,4.18 -10.2,4.18z"/>
  <path class="fil0" d="M44.6 59.15c-3.84,0 -7.15,-1.39 -9.94,-4.18 -2.79,-2.79 -4.18,-6.19 -4.18,-10.2 0,-4.36 1.44,-7.8 4.32,-10.33 2.88,-2.53 6.23,-3.79 10.07,-3.79 3.66,0 6.93,1.26 9.81,3.79 2.88,2.53 4.32,5.97 4.32,10.33 0,4.01 -1.39,7.41 -4.18,10.2 -2.79,2.79 -6.19,4.18 -10.2,4.18z"/>
  <path class="fil0" d="M89.47 44.98l-6.05 8.7 -1.98 12.68 3.3 10.88c0,7.08 -1.42,13.25 -4.26,18.51 -2.84,5.26 -6.68,9.33 -11.51,12.23 -4.83,2.9 -10.25,4.34 -16.25,4.34 -6.44,0 -12.1,-1.18 -16.98,-3.54l-5.55 10.06c6.44,3.16 13.89,4.75 22.37,4.75 8.58,0 16.2,-2.01 22.85,-6.03 6.65,-4.02 11.91,-9.49 15.77,-16.41 3.86,-6.92 5.79,-14.72 5.79,-23.41l-7.49 -32.75zm49.46 44.65c-8.58,0 -16.25,-1.93 -23.01,-5.79 -6.76,-3.86 -12.07,-9.17 -15.93,-15.93 -3.86,-6.76 -5.79,-14.43 -5.79,-23.01 0,-8.69 1.93,-16.41 5.79,-23.17 3.86,-6.76 9.17,-12.07 15.93,-15.93 6.76,-3.86 14.43,-5.79 23.01,-5.79 8.58,0 16.23,1.93 22.93,5.79 6.7,3.86 11.99,9.17 15.85,15.93 3.86,6.76 5.85,14.48 5.95,23.17 0,8.58 -1.96,16.25 -5.87,23.01 -3.92,6.76 -9.23,12.07 -15.93,15.93 -6.71,3.86 -14.35,5.79 -22.93,5.79zm0 -11.26c6.22,0 11.8,-1.45 16.74,-4.34 4.93,-2.9 8.8,-6.87 11.59,-11.91 2.79,-5.04 4.18,-10.78 4.18,-17.22 0,-6.44 -1.39,-12.2 -4.18,-17.3 -2.79,-5.1 -6.65,-9.09 -11.59,-11.99 -4.93,-2.9 -10.51,-4.34 -16.74,-4.34 -6.22,0 -11.8,1.45 -16.74,4.34 -4.93,2.9 -8.82,6.89 -11.67,11.99 -2.84,5.1 -4.26,10.86 -4.26,17.3 0,6.44 1.42,12.18 4.26,17.22 2.84,5.04 6.73,9.01 11.67,11.91 4.93,2.9 10.51,4.34 16.74,4.34z"/>
  <path class="fil0" d="M44.74 89.71c-8.58,0 -16.25,-1.93 -23.01,-5.79 -6.76,-3.86 -12.07,-9.17 -15.93,-15.93 -3.86,-6.76 -5.79,-14.43 -5.79,-23.01 0,-8.69 1.93,-16.41 5.79,-23.17 3.86,-6.76 9.17,-12.07 15.93,-15.93 6.76,-3.86 14.43,-5.79 23.01,-5.79 8.58,0 16.23,1.93 22.93,5.79 6.7,3.86 11.99,9.17 15.85,15.93 3.86,6.76 5.85,14.48 5.95,23.17 0,8.58 -1.96,16.25 -5.87,23.01 -3.92,6.76 -9.23,12.07 -15.93,15.93 -6.71,3.86 -14.35,5.79 -22.93,5.79zm0 -11.26c6.22,0 11.8,-1.45 16.74,-4.34 4.93,-2.9 8.8,-6.87 11.59,-11.91 2.79,-5.04 4.18,-10.78 4.18,-17.22 0,-6.44 -1.39,-12.2 -4.18,-17.3 -2.79,-5.1 -6.65,-9.09 -11.59,-11.99 -4.93,-2.9 -10.51,-4.34 -16.74,-4.34 -6.22,0 -11.8,1.45 -16.74,4.34 -4.93,2.9 -8.82,6.89 -11.67,11.99 -2.84,5.1 -4.26,10.86 -4.26,17.3 0,6.44 1.42,12.18 4.26,17.22 2.84,5.04 6.73,9.01 11.67,11.91 4.93,2.9 10.51,4.34 16.74,4.34z"/>
  <path class="fil1" d="M8.2 44.85l73.07 0.09c0.18,-52.59 -73.29,-52.28 -73.07,-0.09z"/>
  <path class="fil1" d="M102.32 44.85l73.07 0.09c0.18,-52.59 -73.29,-52.28 -73.07,-0.09z"/>
 </g>
</svg>
